<?xml version="1.0" standalone="no"?>
<!DOCTYPE svg PUBLIC "-//W3C//DTD SVG 1.1//EN" "http://www.w3.org/Graphics/SVG/1.1/DTD/svg11.dtd" >
<svg xmlns="http://www.w3.org/2000/svg">
<metadata>Generated by IcoMoon</metadata>
<defs>
<font id="gavi-icons" horiz-adv-x="1024">
<font-face units-per-em="1024" ascent="960" descent="-64" />
<missing-glyph horiz-adv-x="1024" />
<glyph unicode="&#x20;" d="" horiz-adv-x="512" />
<glyph unicode="&#x61;" d="M950 856.667v-256c0-10-2-18-10-26s-16-10-26-10h-256c-16 0-26 6-34 22-6 14-4 28 8 40l80 78c-56 52-124 78-200 78-40 0-78-8-114-22-36-16-66-36-92-64-28-26-48-56-64-92-14-36-22-74-22-114s8-78 22-114c16-36 36-66 64-92 26-28 56-48 92-64 36-14 74-22 114-22 46 0 88 10 128 30 40 18 76 46 102 84 4 2 8 6 14 6s10-2 14-6l78-78c4-4 6-6 6-12 0-4-2-8-4-12-42-50-92-90-152-118-58-28-120-40-186-40-60 0-116 10-170 34s-102 54-140 94c-40 38-70 86-94 140s-34 110-34 170c0 60 10 116 34 170s54 102 94 140c38 40 86 70 140 94s110 34 170 34c56 0 110-10 162-30 52-22 100-52 140-90l74 74c12 12 24 14 40 8 16-8 22-18 22-34z" />
<glyph unicode="&#x2022;" d="M950 490.667c0-80-18-154-58-220-40-68-92-120-160-160-66-40-140-58-220-58s-154 18-220 58c-68 40-120 92-160 160-40 66-58 140-58 220s18 154 58 220c40 68 92 120 160 160 66 40 140 58 220 58s154-18 220-58c68-40 120-92 160-160 40-66 58-140 58-220z" />
<glyph unicode="&#x2190;" d="M592 204.667l58 60c8 6 12 14 12 24s-4 20-12 26l-174 176 174 176c8 6 12 16 12 26s-4 18-12 24l-58 60c-6 6-16 10-26 10s-18-4-24-10l-260-260c-8-8-12-16-12-26s4-18 12-26l260-260c6-6 14-10 24-10s20 4 26 10zM950 490.667c0-80-18-154-58-220-40-68-92-120-160-160-66-40-140-58-220-58s-154 18-220 58c-68 40-120 92-160 160-40 66-58 140-58 220s18 154 58 220c40 68 92 120 160 160 66 40 140 58 220 58s154-18 220-58c68-40 120-92 160-160 40-66 58-140 58-220z" />
<glyph unicode="&#x2192;" d="M482 204.667l260 260c8 8 12 16 12 26s-4 18-12 26l-260 260c-6 6-14 10-24 10s-20-4-26-10l-58-60c-8-6-12-14-12-24s4-20 12-26l174-176-174-176c-8-6-12-16-12-26s4-18 12-24l58-60c6-6 16-10 26-10s18 4 24 10zM950 490.667c0-80-18-154-58-220-40-68-92-120-160-160-66-40-140-58-220-58s-154 18-220 58c-68 40-120 92-160 160-40 66-58 140-58 220s18 154 58 220c40 68 92 120 160 160 66 40 140 58 220 58s154-18 220-58c68-40 120-92 160-160 40-66 58-140 58-220z" />
<glyph unicode="&#xe600;" d="M384 248.747l-177.92 177.92-60.373-60.373 238.293-238.293 512 512-60.373 60.373z" />
<glyph unicode="&#xe601;" d="M512 201.814l263.68-159.147-69.76 299.947 232.747 201.6-306.773 26.453-119.893 282.667-119.893-282.667-306.773-26.453 232.747-201.6-69.76-299.947z" />
<glyph unicode="&#xe602;" d="M512 853.334c-235.733 0-426.667-190.933-426.667-426.667s190.933-426.667 426.667-426.667 426.667 190.933 426.667 426.667-190.933 426.667-426.667 426.667zM554.667 128h-85.333v85.333h85.333v-85.333zM642.773 458.454l-38.187-39.253c-30.72-30.72-49.92-56.533-49.92-120.533h-85.333v21.333c0 47.147 19.2 89.813 49.92 120.747l53.12 53.76c15.36 15.36 24.96 36.693 24.96 60.16 0 47.147-38.187 85.333-85.333 85.333s-85.333-38.187-85.333-85.333h-85.333c0 94.293 76.373 170.667 170.667 170.667s170.667-76.373 170.667-170.667c0-37.547-15.147-71.467-39.893-96.213z" />
<glyph unicode="&#xe603;" d="M622.293 597.334l-110.293-110.293-110.293 110.293-60.373-60.373 110.293-110.293-110.293-110.293 60.373-60.373 110.293 110.293 110.293-110.293 60.373 60.373-110.293 110.293 110.293 110.293-60.373 60.373zM512 853.334c-235.733 0-426.667-190.933-426.667-426.667s190.933-426.667 426.667-426.667 426.667 190.933 426.667 426.667-190.933 426.667-426.667 426.667zM512 85.334c-188.16 0-341.333 153.173-341.333 341.333s153.173 341.333 341.333 341.333 341.333-153.173 341.333-341.333-153.173-341.333-341.333-341.333z" />
<glyph unicode="&#xe604;" d="M512 853.334c-235.733 0-426.667-190.933-426.667-426.667s190.933-426.667 426.667-426.667 426.667 190.933 426.667 426.667-190.933 426.667-426.667 426.667zM554.667 213.334h-85.333v256h85.333v-256zM554.667 554.667h-85.333v85.333h85.333v-85.333z" />
<glyph unicode="&#xe605;" d="M661.333 341.334h-33.92l-11.733 11.733c41.813 48.427 66.987 111.36 66.987 180.267 0 153.173-124.16 277.333-277.333 277.333s-277.333-124.16-277.333-277.333 124.16-277.333 277.333-277.333c68.907 0 131.84 25.173 180.267 66.773l11.733-11.733v-33.707l213.333-212.907 63.573 63.573-212.907 213.333zM405.333 341.334c-106.027 0-192 85.973-192 192s85.973 192 192 192 192-85.973 192-192-85.973-192-192-192z" />
<glyph unicode="&#xe606;" d="M511.787 853.334c-235.733 0-426.453-190.933-426.453-426.667s190.72-426.667 426.453-426.667c235.733 0 426.88 190.933 426.88 426.667s-191.147 426.667-426.88 426.667zM692.48 170.667l-180.48 108.8-180.48-108.8 47.787 205.227-159.147 138.027 209.92 17.92 81.92 193.493 81.92-193.493 209.92-17.92-159.147-138.027 47.787-205.227z" />
<glyph unicode="&#xe607;" d="M853.333 469.334h-519.253l238.293 238.293-60.373 60.373-341.333-341.333 341.333-341.333 60.373 60.373-238.293 238.293h519.253v85.333z" />
<glyph unicode="&#xe608;" d="M512 768l-60.373-60.373 238.293-238.293h-519.253v-85.333h519.253l-238.293-238.293 60.373-60.373 341.333 341.333z" />
<glyph unicode="&#xe609;" d="M853.333 853.334h-682.667c-47.147 0-84.907-38.187-84.907-85.333l-0.427-768 170.667 170.667h597.333c47.147 0 85.333 38.187 85.333 85.333v512c0 47.147-38.187 85.333-85.333 85.333zM768 341.334h-512v85.333h512v-85.333zM768 469.334h-512v85.333h512v-85.333zM768 597.334h-512v85.333h512v-85.333z" />
<glyph unicode="&#xe60a;" d="M512 853.334c-235.733 0-426.667-190.933-426.667-426.667s190.933-426.667 426.667-426.667 426.667 190.933 426.667 426.667-190.933 426.667-426.667 426.667zM725.333 384h-170.667v-170.667h-85.333v170.667h-170.667v85.333h170.667v170.667h85.333v-170.667h170.667v-85.333z" />
<glyph unicode="&#xe60b;" d="M554.667 640h-85.333v-170.667h-170.667v-85.333h170.667v-170.667h85.333v170.667h170.667v85.333h-170.667v170.667zM512 853.334c-235.733 0-426.667-190.933-426.667-426.667s190.933-426.667 426.667-426.667 426.667 190.933 426.667 426.667-190.933 426.667-426.667 426.667zM512 85.334c-188.16 0-341.333 153.173-341.333 341.333s153.173 341.333 341.333 341.333 341.333-153.173 341.333-341.333-153.173-341.333-341.333-341.333z" />
<glyph unicode="&#xe60c;" d="M810.667 664.96l-60.373 60.373-238.293-238.293-238.293 238.293-60.373-60.373 238.293-238.293-238.293-238.293 60.373-60.373 238.293 238.293 238.293-238.293 60.373 60.373-238.293 238.293z" />
<glyph unicode="&#xe60d;" d="M757.333 640l-160 160-426.667-426.667v-160h160l426.667 426.667zM883.413 766.080c16.64 16.64 16.64 43.733 0 60.373l-99.627 99.627c-16.64 16.64-43.733 16.64-60.373 0l-83.413-83.413 160-160 83.413 83.413zM0 85.334h1024v-170.667h-1024z" />
<glyph unicode="&#xe60e;" d="M213.333 768v-85.333h597.333v85.333h-597.333zM213.333 341.334h170.667v-256h256v256h170.667l-298.667 298.667-298.667-298.667z" />
<glyph unicode="&#xe60f;" d="M512 597.334l-256-256 60.373-60.373 195.627 195.627 195.627-195.627 60.373 60.373z" />
<glyph unicode="&#xe610;" d="M707.627 572.374l-195.627-195.627-195.627 195.627-60.373-60.373 256-256 256 256z" />
<glyph unicode="&#xe611;" d="M810.667 810.667h-597.333c-47.36 0-85.333-38.4-85.333-85.333v-597.333c0-46.933 37.973-85.333 85.333-85.333h597.333c47.36 0 85.333 38.4 85.333 85.333v597.333c0 46.933-37.973 85.333-85.333 85.333zM426.667 213.334l-213.333 213.333 60.16 60.16 153.173-152.747 323.84 323.84 60.16-60.587-384-384z" />
<glyph unicode="&#xe612;" d="M810.667 725.334v-597.333h-597.333v597.333h597.333zM810.667 810.667h-597.333c-46.933 0-85.333-38.4-85.333-85.333v-597.333c0-46.933 38.4-85.333 85.333-85.333h597.333c46.933 0 85.333 38.4 85.333 85.333v597.333c0 46.933-38.4 85.333-85.333 85.333z" />
<glyph unicode="&#xe613;" d="M512 853.334c-235.52 0-426.667-191.147-426.667-426.667s191.147-426.667 426.667-426.667 426.667 191.147 426.667 426.667-191.147 426.667-426.667 426.667zM512 85.334c-188.587 0-341.333 152.747-341.333 341.333s152.747 341.333 341.333 341.333 341.333-152.747 341.333-341.333-152.747-341.333-341.333-341.333z" />
<glyph unicode="&#xe614;" d="M512 640c-117.76 0-213.333-95.573-213.333-213.333s95.573-213.333 213.333-213.333 213.333 95.573 213.333 213.333-95.573 213.333-213.333 213.333zM512 853.334c-235.52 0-426.667-191.147-426.667-426.667s191.147-426.667 426.667-426.667 426.667 191.147 426.667 426.667-191.147 426.667-426.667 426.667zM512 85.334c-188.587 0-341.333 152.747-341.333 341.333s152.747 341.333 341.333 341.333 341.333-152.747 341.333-341.333-152.747-341.333-341.333-341.333z" />
<glyph unicode="&#xe615;" d="M85.333 277.334v-85.333h853.333v85.333h-853.333zM85.333 490.667v-85.333h853.333v85.333h-853.333zM85.333 704v-85.333h853.333v85.333h-853.333z" />
<glyph unicode="&#xe616;" d="M170.667 597.334h170.667v170.667h-170.667v-170.667zM426.667 85.334h170.667v170.667h-170.667v-170.667zM170.667 85.334h170.667v170.667h-170.667v-170.667zM170.667 341.334h170.667v170.667h-170.667v-170.667zM426.667 341.334h170.667v170.667h-170.667v-170.667zM682.667 768v-170.667h170.667v170.667h-170.667zM426.667 597.334h170.667v170.667h-170.667v-170.667zM682.667 341.334h170.667v170.667h-170.667v-170.667zM682.667 85.334h170.667v170.667h-170.667v-170.667z" />
<glyph unicode="&#xe617;" d="M512 858.521c-237.52 0-431.854-194.334-431.854-431.854s194.334-431.854 431.854-431.854 431.854 194.334 431.854 431.854-194.334 431.854-431.854 431.854zM425.63 210.74l-215.927 215.927 60.459 60.459 155.468-155.468 328.209 328.209 60.459-60.459-388.668-388.668z" />
<glyph unicode="&#xe618;" d="M512 359.884c61.485 0 117.137 24.932 157.429 65.224 40.248 40.292 65.18 95.944 65.18 157.384s-24.932 117.137-65.18 157.384c-40.292 40.292-95.944 65.224-157.429 65.224s-117.137-24.932-157.429-65.224c-40.248-40.248-65.18-95.9-65.18-157.384s24.932-117.137 65.18-157.384c40.292-40.248 95.944-65.224 157.429-65.224zM868.174 315.363c30.72 0 58.546 12.422 78.714 32.545s32.59 47.95 32.59 78.759c0 30.72-12.422 58.546-32.59 78.714s-47.994 32.59-78.714 32.59c-30.765 0-58.591-12.422-78.759-32.59-20.124-20.168-32.545-47.994-32.545-78.714 0-30.765 12.422-58.591 32.545-78.759s47.994-32.545 78.759-32.545zM868.174 289.095c-59.258 0-103.825-18.076-129.87-43.097-49.642 40.826-128.134 69.365-226.304 69.365-100.886 0-177.864-28.85-226.705-69.632-26.535 25.199-71.591 43.364-129.469 43.364-97.414 0-155.826-48.529-155.826-97.146 0-24.264 58.413-48.618 155.826-48.618 26.891 0 51.022 2.271 72.259 5.921-0.445-4.051-1.781-8.014-1.781-12.021 0-44.522 107.119-89.043 285.696-89.043 167.491 0 285.696 44.522 285.696 89.043 0 3.784-0.49 7.569-0.89 11.353 20.614-3.25 44.299-5.254 71.368-5.254 91.314 0 155.826 24.353 155.826 48.618 0 48.618-61.128 97.146-155.826 97.146zM155.826 315.363c30.72 0 58.546 12.422 78.714 32.59s32.59 48.039 32.59 78.714c0 30.675-12.422 58.502-32.59 78.714-20.168 20.124-47.994 32.59-78.714 32.59-30.765 0-58.591-12.466-78.759-32.59-20.124-20.213-32.545-48.039-32.545-78.714 0-30.72 12.422-58.546 32.545-78.714 20.168-20.124 47.994-32.59 78.759-32.59z" />
<glyph unicode="&#xe619;" d="M512.001 669.62l-365.205-301.073c0-0.425-0.107-1.050-0.32-1.902-0.209-0.845-0.32-1.459-0.32-1.895v-304.868c0-11.008 4.024-20.547 12.071-28.58 8.044-8.038 17.57-12.082 28.58-12.082h243.888v243.902h162.615v-243.911h243.886c11.008 0 20.547 4.036 28.58 12.091 8.047 8.024 12.084 17.57 12.084 28.58v304.868c0 1.691-0.231 2.968-0.641 3.797l-365.219 301.073zM1016.937 437.146l-139.090 115.597v259.143c0 5.924-1.904 10.796-5.726 14.609-3.791 3.809-8.663 5.713-14.6 5.713h-121.946c-5.931 0-10.801-1.904-14.616-5.713-3.806-3.813-5.708-8.687-5.708-14.609v-123.853l-154.974 129.575c-13.535 11.010-29.628 16.514-48.262 16.514-18.631 0-34.722-5.504-48.27-16.514l-456.687-380.462c-4.234-3.381-6.554-7.933-6.985-13.65-0.429-5.713 1.050-10.703 4.443-14.934l39.379-47.002c3.393-3.809 7.833-6.138 13.339-6.99 5.083-0.427 10.167 1.059 15.25 4.445l439.52 366.493 439.524-366.491c3.395-2.954 7.833-4.429 13.339-4.429h1.909c5.497 0.836 9.929 3.181 13.339 6.981l39.383 46.996c3.386 4.24 4.87 9.221 4.429 14.941-0.434 5.702-2.763 10.253-6.988 13.642z" />
<glyph unicode="&#xe61a;" d="M955.349 683.672c-45.786 78.439-107.891 140.545-186.333 186.328-78.456 45.781-164.101 68.667-257.001 68.667-92.891 0-178.553-22.886-257.003-68.667-78.446-45.776-140.552-107.882-186.338-186.328-45.788-78.451-68.674-164.122-68.674-257.006s22.893-178.546 68.667-257.001c45.783-78.423 107.889-140.545 186.335-186.333 78.451-45.779 164.115-68.667 257.003-68.667s178.562 22.888 257.008 68.667c78.442 45.772 140.545 107.894 186.326 186.333 45.774 78.456 68.658 164.124 68.658 257.001 0.002 92.884-22.884 178.567-68.648 257.006zM576.052 157.28c-4.467 5.322-6.010 9.775-4.668 13.345-0.446-2.228-2.003-4.226-4.665-5.999-2.221 2.662-6.235 5.999-12.005 9.994-5.786 4.014-9.779 7.339-12.002 10.022-0.897 1.326-2.109 3.213-3.668 5.658-1.557 2.445-3.554 5.665-5.999 9.669-2.431 3.995-4.205 7.447-5.322 10.342-1.104 2.891-1.207 4.553-0.336 4.985-8.439-3.563-20.665-1.118-36.663 7.337-3.108 1.775-7.783 6.442-14.001 14.001s-12.665 10.884-19.334 10.003c-2.218-0.446-5.221-1.221-9.002-2.333-3.771-1.118-6.996-1.663-9.665-1.663s-6.225 0.878-10.671 2.671c-3.549 1.324-8.327 3.89-14.328 7.661-5.996 3.771-10.113 6.12-12.329 6.991-5.777 3.117-8.665 4.668-8.665 4.668l-10.667 5.322c-2.669 1.324-5.45 3.437-8.338 6.328-2.888 2.893-4.771 5.896-5.66 9.006-0.887 2.66-1.999 7.998-3.332 16.004-1.333 8.009-3.115 13.777-5.333 17.326-2.662 4.441-6.44 8.887-11.334 13.329-4.883 4.441-9.326 6.681-13.329 6.681 3.559 0 3.559 2.98 0 8.997-3.559 6.010-6.669 10.342-9.338 12.992-0.89 0.897-3.559 3.78-8.002 8.679-4.444 4.892-8.222 9.102-11.332 12.675-3.108 3.554-5.786 7.661-8.002 12.336-2.218 4.668-2.669 8.551-1.333 11.668 0.441 0.439 0 1.111-1.336 1.996-1.333 0.878-2.994 1.782-4.999 2.669-1.996 0.88-3.888 1.663-5.66 2.333-1.786 0.656-3.12 0.992-4.005 0.992 0.894-1.791 1.891-5.004 3.005-9.669 1.111-4.675 2.333-8.121 3.664-10.342 0.894-1.775 4.668-8.229 11.334-19.32 11.563-18.666 16.887-32.46 16.004-41.345-2.669-0.88-4.451-0.446-5.338 1.326-0.89 1.772-1.562 4.219-2.001 7.334-0.444 3.101-0.883 5.322-1.336 6.664-1.333 2.669-4.778 5.562-10.337 8.679-5.553 3.099-9.002 6.216-10.333 9.333 0.448 0 0.995 0.208 1.667 0.67 0.67 0.446 1.231 0.654 1.67 0.654 0.451 3.998-1.882 9.109-6.996 15.344-5.114 6.216-7.215 10.657-6.333 13.329-3.559 2.669-6.669 7.895-9.338 15.661-2.667 7.783-4.892 12.787-6.669 15.012-1.775 2.657-3.991 4.99-6.662 6.996-2.669 1.994-5.996 4.215-10.001 6.662-4 2.445-6.669 4.107-8.002 4.999-0.892 0.437-2.664 2.428-5.333 5.987-14.664 17.784-19.108 27.341-13.329 28.672-5.777-1.331-10.557 2.998-14.335 13.006-3.78 9.996-4.999 17.672-3.668 23.003l-1.331 0.663c0.448 1.782 0.668 6.996 0.668 15.671 0 8.67 0.56 16.56 1.67 23.668 1.116 7.11 3.225 10.671 6.333 10.671-3.108-0.444-5.438 2.34-6.996 8.329-1.555 6.006-1.665 10.12-0.336 12.338 0.444 1.336 2.449 0.437 6.001-2.669 3.549-3.101 5.553-5.114 5.996-5.996 5.779 3.12 8.005 7.113 6.669 12.007-0.89 1.775-5.557 6.44-14.001 14.001-19.115 12.439-28.896 18.442-29.333 18.003 2.657 4.883 1.994 9.104-2.006 12.665-4.441-2.669-6.996-3.332-7.666-2.006-0.663 1.336-1.219 3.771-1.67 7.332-0.439 3.552-1.555 5.55-3.327 5.996-2.225 0.444-4.894 2.218-8.002 5.331 39.554 63.112 91.775 112.445 156.666 148.008 2.664 0.439 7.552 0.663 14.662 0.663 3.552-0.444 6.888-1.557 9.996-3.332 3.113-1.775 6.337-4.224 9.665-7.332 3.339-3.101 5.894-5.326 7.668-6.662 0.89 2.669-0.219 6.669-3.33 12.002 0.883 2.669 5.775 5.338 14.664 8.002 10.216 1.333 16.889 1.116 19.997-0.67-2.662 4.002-7.103 9.56-13.329 16.668l-3.332-3.327c-3.559 3.108-12.885 1.555-28-4.668-0.883-0.439-3.108-1.67-6.667-3.664-3.552-1.996-6.449-3.444-8.665-4.332-2.669-0.89-5.333-1.111-8.002-0.668 21.331 11.552 42.225 20.677 62.673 27.337 1.322-0.883 3.549-2.774 6.662-5.66 3.108-2.888 5.553-5.004 7.332-6.333-1.333 0.883-2.225 0.448-2.669-1.333-1.775-5.331-1.775-9.775 0-13.329 2.218-3.12 5.221-4.887 9.002-5.338 3.78-0.439 8.331-0.219 13.665 0.672 5.333 0.883 8.894 1.333 10.671 1.333l6.669-0.672c14.218-1.333 19.778 0 16.668 4.005 1.331-1.786 2.886-5.45 4.663-11.007 1.775-5.557 3.78-9.448 5.996-11.671 2.225 1.786 2.669 4.894 1.333 9.338-1.333 4.444-1.333 7.563 0 9.338 0.439 0.883 1.775 1.782 4 2.669 2.225 0.883 4.778 1.882 7.668 2.994 2.888 1.116 4.778 1.891 5.674 2.333 2.664 1.782 0.883 4.894-5.338 9.338-0.89 0.446-2.774 1.111-5.66 2.001-2.888 0.876-5.45 1.777-7.668 2.662-2.218 0.883-4.551 2.109-6.996 3.664-2.445 1.557-3.559 3.332-3.341 5.338 0.224 2.006 1.452 4.556 3.668 7.668 2.669 2.216 7.005 3.108 13.002 2.664 5.996-0.439 10.557-1.548 13.665-3.327 12.007-6.669 13.779-12.679 5.338-18.003 4.451-0.439 9.784-2.218 16.004-5.326 6.216-3.115 8.661-6.449 7.332-10.008 3.556 6.667 7.108 10.008 10.669 10.008 2.218-0.451 4.339-3.454 6.333-9.009 1.996-5.553 3.215-8.551 3.657-9.002 3.563-4.883 7.096-5.996 10.676-3.327 3.549 2.664 7.225 6.552 10.996 11.666 3.771 5.107 5.882 7.439 6.33 6.996-4.444 1.77-4.908 3.552-1.326 5.331 6.648 4 12.658 5.114 17.996 3.327 1.324-0.883 3.115-2.888 5.319-5.989 3.988-8.012 3.325-11.783-1.996-11.339 3.995-3.559 5.651-8.007 5.004-13.333-0.67-5.333-4.133-7.78-10.349-7.332-2.214 0-5.45 1.116-9.679 3.332-4.219 2.218-7.439 3.437-9.669 3.664-2.221 0.231-5.338-0.995-9.333-3.664-1.775-2.225-4.107-6.006-7.001-11.334-2.891-5.343-5.45-9.114-7.671-11.332-6.662-6.667-17.784-9.116-33.338-7.332 1.336 0 1.219-1.333-0.336-4.002-1.562-2.664-3.664-5.67-6.333-8.999-2.669-3.332-4.224-5.221-4.663-5.665-4.002-4.444-6.667-9.557-8.002-15.334 0-0.89-0.224-3.893-0.672-8.997-0.451-5.114-1.333-9.009-2.669-11.671 5.333 1.333 9.557-1.343 12.665-8.002 2.669-6.225 2.669-9.557 0-10.006 14.671 2.214 27.561 1.331 38.68-2.669 15.997-5.777 25.123-11.554 27.344-17.333 2.655 4.005 9.095 4.231 19.323 0.672 4.002-2.218 7.542-8.894 10.674-19.997 1.775-6.662 4.78-12.446 8.999-17.331 4.229-4.887 8.775-6.218 13.672-4l1.992 1.333c1.782 0.883 3.22 1.665 4.329 2.33 1.118 0.663 2.333 1.555 3.659 2.669 1.343 1.111 2.125 2.111 2.333 2.994 0.208 0.887-0.112 1.786-0.99 2.669-3.117 2.669-5.45 6.333-7.001 10.993-1.541 4.668-1.207 8.782 1.009 12.343 1.324 1.775 4.883 4.444 10.657 8.002 5.786 3.561 9.343 7.113 10.667 10.669 1.8 5.777-0.439 10.557-6.657 14.34-6.223 3.771-9.34 7.215-9.34 10.333 0 2.225 1.445 4.887 4.329 8.002 2.9 3.108 4.124 6.006 3.668 8.665 0 1.343-0.785 4.114-2.335 8.338-1.541 4.231-2.445 7.339-2.662 9.338-0.224 2.001 0.785 4.334 2.996 6.996 3.101 1.782 10.438 1.67 21.992-0.327 11.556-2.006 19.117-4.117 22.68-6.333 1.34-0.883 4.226-2.218 8.67-4.002 4.441-1.765 8.334-3.654 11.675-5.663 3.316-1.996 5.207-3.879 5.649-5.66h-3.325c3.108-2.676 5.004-5.777 5.658-9.338 0.672-3.568-0.99-6.228-4.985-8.012 2.653 0.451 6.223-0.219 10.667-1.996 7.113-2.664 7.337-5.114 0.67-7.332 1.326 0.451 3.213 0.887 5.651 1.336 2.445 0.444 4.325 1.114 5.665 1.996 0.88 0.448 1.996 1.219 3.325 2.335 1.343 1.111 2.333 1.782 3.005 1.994 0.67 0.219 1.66 0.451 3.003 0.672 1.326 0.219 2.655-0.117 3.979-0.999 0.465 0 1.455 1.114 3.005 3.332 1.541 2.216 3.229 4.441 4.995 6.66 1.784 2.218 3.325 3.327 4.668 3.327 1.317 0 2.55-0.546 3.65-1.658 1.125-1.116 1.996-2.333 2.671-3.668 0.67-1.336 1.324-2.781 1.996-4.327 0.67-1.555 1.214-2.786 1.663-3.668 0.878-2.218 3.003-4.56 6.328-6.996 3.325-2.438 5.434-4.778 6.328-6.996 0.448-1.336 1.319-4.67 2.662-10.010 1.326-5.333 3.117-8.997 5.331-10.993 2.221-2.006 5.553-3.668 9.994-4.999 0.89-0.451 2.902-0.224 6.001 0.658 3.101 0.894 5.667 1.116 7.664 0.672 2.013-0.439 3.003-2.214 3.003-5.333 2.662 2.669 3.988 4.451 3.988 5.333 0.455-5.779 1.887-10.449 4.348-14.001 2.445-3.549 6.328-5.114 11.666-4.663l-1.343-14.671c-1.326-2.218-4.658-3.881-10.003-4.99-5.338-1.116-8.663-2.123-10.006-3.005-1.326-0.444-4.553-3.11-9.669-8.005-5.114-4.894-7.208-7.783-6.328-8.665-7.542 8.446-18.893 10.891-33.996 7.332-16.882-2.667-28.448-5.333-34.664-8.002-7.106-3.561-12.005-6.888-14.671-9.996-0.446-0.444-1.207-2.006-2.326-4.668-1.111-2.664-2.221-5.114-3.325-7.332-1.125-2.218-2.109-3.33-2.996-3.33 2.676 0.432 5.667 2.555 8.999 6.326 3.341 3.78 5.45 5.882 6.33 6.333 11.545 7.552 21.102 10.221 28.703 7.946 9.775-2.669 11.332-6.228 4.658-10.671-0.871-0.883-3.22-1.217-6.991-0.999-3.771 0.219-6.33 0.117-7.671-0.336 4.012-0.883 7.334-2.109 10.020-3.654 2.653-1.555 3.325-3.668 1.989-6.333 7.106-4.002 8.446-8.446 4.005-13.34-5.786-5.786-12.658-8.222-20.665-7.332 1.343 0 1.343-0.892 0-2.667l-11.346-7.332c-0.88-0.437-3.771-1.546-8.663-3.332-4.89-1.765-8.229-3.78-10.003-5.996-1.326-1.779-1.996-4.444-1.996-8.012 0-3.561-0.224-6.23-0.67-8.005-0.439-1.786-2.223-2.216-5.322-1.333-1.343-2.664-5.45-4.778-12.338-6.323-6.888-1.555-11.442-3.888-13.665-6.996 2.653-3.561 2.445-7.113-0.672-10.671-5.338-4.451-10.003-4-13.999 1.333-2.221-0.89-3.893-3.108-5.004-6.669-1.102-3.559-2.779-6.003-4.988-7.332 3.117-4.89 2.655-8.455-1.324-10.667 0.432 0 1.438-0.451 2.987-1.336 1.55-0.887 3.213-1.996 5.004-3.332 1.775-1.336 2.874-2.006 3.325-2.006-1.775-3.991-4.229-5.989-7.337-5.989 2.669-7.115-0.656-14.898-9.987-23.337-1.793-1.775-4.572-3.549-8.343-5.333-3.797-1.775-7.232-3.215-10.349-4.329s-4.883-1.889-5.329-2.333c-4.444-4.007-7.785-8.114-9.996-12.334-2.214-4.229-2.55-8.334-1.009-12.338 1.56-4.012 5.667-6.664 12.345-8.007l0.647-5.329v-11.995l0.67-5.338c0.455-3.108 0.792-5.889 1.009-8.341 0.217-2.447 0.217-5.546 0-9.333-0.217-3.771-1.221-5.889-2.996-6.321-1.765-0.455-4.212 0-7.33 1.333-3.57 1.775-7.783 11.554-12.682 29.328-0.887 4.441-3.563 9.765-8.007 15.997-2.221-2.221-4.107-3.659-5.658-4.325-1.543-0.67-2.671-0.792-3.318-0.336-0.67 0.439-1.894 1.445-3.673 2.996-1.775 1.55-3.318 2.781-4.658 3.659-2.223 1.326-6.106 2.447-11.675 3.325-5.546 0.887-9.009 2.006-10.326 3.332-10.678-8.014-17.128-5.999-19.346 5.985-0.883-2.214-0.775-5.21 0.336-8.999 1.116-3.778 1.67-5.882 1.67-6.328-3.108-5.786-7.995-6.216-14.664-1.326-2.669 2.655-8.782 2.989-18.34 0.992-9.557-1.992-15.89-2.326-18.998-0.992 0.451 0 1.333-0.663 2.669-2.003 1.331-0.871 2.225-1.543 2.667-1.992-0.448-1.784-1.111-3.108-2.006-3.995-0.892-0.88-1.782-1.217-2.667-1.009-0.89 0.224-1.889 0.224-3.005 0-1.111-0.208-2.109-0.542-3.001-0.99-1.777-1.326-3.995-3.659-6.664-6.991-2.664-3.334-4.663-5.443-5.996-6.321 2.662-7.113 3.888-12.563 3.668-16.334-0.231-3.787-0.89-9.343-2.006-16.67s-1.67-13.226-1.67-17.676c0-7.094 2.113-15.341 6.333-24.661 4.224-9.333 9.221-15.773 15-19.337 3.12-1.775 8.455-2.877 16.004-3.318 7.554-0.453 12.89 0 15.997 1.326 2.669 1.317 4.663 2.884 5.996 4.658s2.449 4.348 3.332 7.671c0.89 3.325 1.562 5.658 2.006 6.984 3.108 8.455 8.885 12.897 17.319 13.345 5.354 0.446 9.221-0.128 11.682-1.663 2.445-1.557 3.437-3.666 2.989-6.337-0.448-2.66-1.333-5.441-2.655-8.331-1.34-2.893-3.003-6.106-5.006-9.672-1.987-3.57-3.218-6.232-3.647-8.016-0.89-3.554-1.679-8.549-2.333-15.007-0.67-6.44-1.233-10.333-1.679-11.673 0.897-0.434 4.224-0.656 9.996-0.656 0 0.88 0.336 2.335 1.006 4.332 0.656 1.996 0.992 3.22 0.992 3.659 2.23-3.563 5.786-5.546 10.676-5.994 4.89-0.446 8.453 1.326 10.674 5.331 0.897-1.336 3.563-4.675 8.009-10.013 4.441-5.322 6.886-9.765 7.337-13.329 0.446-1.791 1.324-4.668 2.653-8.679 1.343-3.995 1.791-6.776 1.343-8.341-0.446-1.534-2.671-2.326-6.664-2.326-1.775 0-2.891-0.67-3.325-1.996-0.462-1.343-0.462-2.996 0-4.995 0.448-1.996 1.009-3.893 1.663-5.667 0.663-1.765 1.55-3.668 2.655-5.667 1.133-1.982 1.679-3.211 1.679-3.657 7.991-14.655 18.891-18.659 32.665-12.005 0-12.883-3.115-19.993-9.35-21.319-3.514-0.883-7.503 1.361-11.946 6.683zM586.008 6.666c-0.878 4.444-1.326 7.993-1.277 10.646-0.465 3.563 1.102 8.343 4.649 14.337 3.554 5.992 5.329 10.557 5.329 13.665-7.11 1.775-9.775 7.559-8.014 17.333 0.894 6.671 7.334 15.558 19.337 26.666 8.453 7.559 11.108 18.237 8.007 32.002-1.343 5.779-2.461 14.232-3.341 25.342-0.878 11.115-1.775 18.891-2.669 23.332 0-1.326 2.109-2.55 6.344-3.659 4.222-1.102 6.776-2.557 7.664-4.315 0.887 1.317 1.992 3.771 3.332 7.32 1.326 3.563 2.671 6.223 3.979 8.007 0.897 1.333 2.781 2.996 5.677 5.004 2.891 1.996 4.778 3.211 5.665 3.659 0.871 0.439 2.884 1.877 5.985 4.329 3.115 2.445 5.674 4.325 7.678 5.658 2.013 1.333 4.658 2.333 8 2.989 3.341 0.67 5.667-0.322 6.991-2.989 2.23-2.671 1.791-6.776-1.324-12.338-3.117-5.562-3.117-9.452 0-11.682 0.453 1.343 0.887 4.243 1.324 8.686 0.455 4.444 1.791 7.776 4.005 10.013 2.669 2.653 5.217 4.219 7.671 4.651 2.445 0.462 4.658 0.128 6.65-0.999 2.013-1.111 4.346-2.646 7.001-4.658 2.669-1.996 5.111-3.222 7.334-3.659 6.664-2.223 14.671-7.113 24.004-14.671-0.446 0.453-0.446 1.006 0 1.679 0.448 0.654 1.326 1.324 2.671 1.996 1.326 0.654 2.541 1.324 3.659 1.996 1.102 0.663 2.316 1.198 3.659 1.653l1.996 0.67c3.101 0 5.329 0.217 6.657 0.672 1.324 0.439 3.236 0 5.665-1.343 2.431-1.326 4.11-2.326 4.988-2.996 0.894-0.654 2.445-1.877 4.668-3.659 2.221-1.775 3.787-3.117 4.649-3.995 1.343-0.878 3.787-2.445 7.337-4.668 3.563-2.221 6.344-3.995 8.343-5.319 2.013-1.326 3.785-3.341 5.319-5.985 1.55-2.685 2.127-5.571 1.679-8.686 2.671-0.448 7.993-2.214 16-5.322 1.343-0.88 4.107-1.672 8.341-2.326 4.222-0.67 7.001-1.679 8.334-2.996-64.396-68.041-142.411-110.042-233.963-126.042z" />
<glyph unicode="&#xe61b;" d="M657.707 622.294l-60.373 60.373-256-256 256-256 60.373 60.373-195.627 195.627z" />
<glyph unicode="&#xe61c;" d="M426.667 682.667l-60.373-60.373 195.627-195.627-195.627-195.627 60.373-60.373 256 256z" />
<glyph unicode="&#xe61d;" d="M0 128h938.667v-85.333h-938.667v85.333zM0 298.667h512v-85.333h-512v85.333zM0 469.334h853.333v-85.333h-853.333v85.333zM0 640h1024v-85.333h-1024v85.333zM0 810.667h682.667v-85.333h-682.667v85.333z" />
<glyph unicode="&#xe61e;" d="M819.2 212.446v94.771c0 98.816-80.384 179.2-179.2 179.2-42.342 0-76.8 34.458-76.8 76.8v77.67c59.443 21.248 102.4 77.517 102.4 144.179 0 84.685-68.915 153.6-153.6 153.6s-153.6-68.915-153.6-153.6c0-66.662 42.957-122.931 102.4-144.128v-77.722c0-42.342-34.458-76.8-76.8-76.8-98.816 0-179.2-80.384-179.2-179.2v-94.771c-59.443-21.248-102.4-77.517-102.4-144.179 0-84.685 68.915-153.6 153.6-153.6s153.6 68.915 153.6 153.6c0 66.662-42.957 122.931-102.4 144.179v94.771c0 42.342 34.458 76.8 76.8 76.8 50.125 0 95.437 20.838 128 54.17 32.563-33.331 77.875-54.17 128-54.17 42.342 0 76.8-34.458 76.8-76.8v-94.771c-59.443-21.248-102.4-77.517-102.4-144.179 0-84.685 68.915-153.6 153.6-153.6s153.6 68.915 153.6 153.6c0 66.662-42.957 122.931-102.4 144.179zM256 17.067c-28.262 0-51.2 22.989-51.2 51.2s22.938 51.2 51.2 51.2 51.2-22.989 51.2-51.2-22.938-51.2-51.2-51.2zM512 836.267c28.262 0 51.2-22.989 51.2-51.2s-22.938-51.2-51.2-51.2-51.2 22.989-51.2 51.2 22.938 51.2 51.2 51.2zM768 17.067c-28.262 0-51.2 22.989-51.2 51.2s22.938 51.2 51.2 51.2 51.2-22.989 51.2-51.2-22.938-51.2-51.2-51.2z" />
<glyph unicode="&#xe61f;" d="M694.857 755.81c0-100.989-81.868-182.857-182.857-182.857s-182.857 81.868-182.857 182.857c0 100.989 81.868 182.857 182.857 182.857s182.857-81.868 182.857-182.857zM694.857-12.19v512h-438.857v-73.143h73.143v-438.857h-73.143v-73.143h512v73.143z" />
<glyph unicode="&#xe620;" d="M764.211-56.55h-76.457l-29.136 637.341h16.84c7.949 0 14.392 6.445 14.392 14.392v95.723c0 7.947-6.443 14.392-14.392 14.392h-51.404v123.374h34.83c6.563 0 12.295 4.442 13.936 10.796s-1.228 13.015-6.97 16.19l-146.887 81.216c-4.334 2.394-9.594 2.394-13.929 0l-146.885-81.214c-5.745-3.176-8.611-9.837-6.97-16.19s7.371-10.796 13.936-10.796h34.827v-123.374h-51.407c-7.949 0-14.392-6.445-14.392-14.392v-95.723c0-7.947 6.443-14.392 14.392-14.392h16.838l-29.136-637.341h-76.453c-7.947 0-14.392-6.443-14.392-14.392 0-7.947 6.445-14.392 14.392-14.392h504.425c7.947 0 14.392 6.445 14.392 14.392s-6.443 14.389-14.392 14.389zM373.925 137.498l4.665 102.081 266.908-64.093c0.945-0.228 1.9-0.336 2.852-0.367l4.776-104.461-279.2 66.839zM637.995 401.712l4.449-97.351-258.071 61.692 4.37 95.593 249.252-59.933zM632.040 531.96l-202.937 48.83h200.707l2.231-48.83zM526.392 705.299v77.381l68.883-29.287v-48.096h-68.883zM512 907.831l91.115-50.378h-182.23l91.115 50.378zM428.726 782.9l68.883-29.284v-48.32h-68.883v77.604zM362.928 676.516h298.14v-66.94h-298.14v66.94zM368.13 10.74l281.172-67.29h-284.247l3.075 67.29z" />
<glyph unicode="&#xe621;" d="M725.333 490.667v149.333c0 23.467-19.2 42.667-42.667 42.667h-512c-23.467 0-42.667-19.2-42.667-42.667v-426.667c0-23.467 19.2-42.667 42.667-42.667h512c23.467 0 42.667 19.2 42.667 42.667v149.333l170.667-170.667v469.333l-170.667-170.667z" />
<glyph unicode="&#xe622;" d="M896 810.667h-768c-47.147 0-85.333-38.187-85.333-85.333v-512c0-47.147 38.187-85.333 85.333-85.333h213.333v-85.333h341.333v85.333h213.333c47.147 0 84.907 38.187 84.907 85.333l0.427 512c0 47.147-38.187 85.333-85.333 85.333zM896 213.334h-768v512h768v-512zM810.667 597.334h-469.333v-85.333h469.333v85.333zM810.667 426.667h-469.333v-85.333h469.333v85.333zM298.667 597.334h-85.333v-85.333h85.333v85.333zM298.667 426.667h-85.333v-85.333h85.333v85.333z" />
<glyph unicode="&#xe623;" d="M825.813 510.507c-29.013 146.773-158.507 257.493-313.813 257.493-123.307 0-230.187-69.973-283.733-172.16-128.213-13.867-228.267-122.453-228.267-254.507 0-141.44 114.56-256 256-256h554.667c117.76 0 213.333 95.573 213.333 213.333 0 112.64-87.68 203.947-198.187 211.84z" />
<glyph unicode="&#xe624;" d="M426.667 768h-256c-47.147 0-84.907-38.187-84.907-85.333l-0.427-512c0-47.147 38.187-85.333 85.333-85.333h682.667c47.147 0 85.333 38.187 85.333 85.333v426.667c0 47.147-38.187 85.333-85.333 85.333h-341.333l-85.333 85.333z" />
<glyph unicode="&#xe625;" d="M853.333 170.667c46.933 0 85.333 38.4 85.333 85.333v426.667c0 46.933-38.4 85.333-85.333 85.333h-682.667c-46.933 0-85.333-38.4-85.333-85.333v-426.667c0-46.933 38.4-85.333 85.333-85.333h-170.667v-85.333h1024v85.333h-170.667zM170.667 682.667h682.667v-426.667h-682.667v426.667z" />
<glyph unicode="&#xe626;" d="M661.333 896h-341.333c-58.88 0-106.667-47.787-106.667-106.667v-725.333c0-58.88 47.787-106.667 106.667-106.667h341.333c58.88 0 106.667 47.787 106.667 106.667v725.333c0 58.88-47.787 106.667-106.667 106.667zM490.667-0c-35.413 0-64 28.587-64 64s28.587 64 64 64 64-28.587 64-64-28.587-64-64-64zM682.667 170.667h-384v597.333h384v-597.333z" />
<glyph unicode="&#xe627;" d="M512 938.667c-194.432 0-352-157.568-352-352 0-128.992 118.016-265.696 160.992-385.76 64.096-179.040 56.992-286.24 191.008-286.24 136 0 126.88 106.688 191.008 285.504 43.104 120.32 160.992 258.496 160.992 386.496 0 194.432-157.632 352-352 352zM594.944 69.035l-158.656-19.808c-5.664 16.384-11.744 35.552-19.136 60.576-0.096 0.32-0.224 0.672-0.288 0.992l198.016 24.736c-2.816-9.44-5.824-19.36-8.448-28.256-4.192-14.368-7.936-26.848-11.488-38.24zM407.552 141.611c-5.824 19.264-12.384 39.552-19.68 61.056h248.512c-3.936-11.488-7.872-23.008-11.264-33.888l-217.568-27.168zM512-21.333c-32.416 0-47.328 3.744-63.904 40l135.616 16.992c-19.648-52.928-33.952-56.992-71.712-56.992zM661.504 266.667h-298.656c-15.936 34.56-35.072 69.12-53.952 102.944-41.76 74.72-84.896 152-84.896 217.056 0 158.816 129.184 288 288 288s288-129.184 288-288c0-64.576-43.2-142.272-84.992-217.44-18.688-33.696-37.696-68.192-53.504-102.56zM512 778.667c-105.888 0-192-86.112-192-192 0-8.832 7.168-16 16-16s16 7.168 16 16c0 88.224 71.776 160 160 160 8.832 0 16 7.168 16 16s-7.2 16-16 16z" />
<glyph unicode="&#xe939;" d="M575.996 640l127.998-127.998-255.994-255.994-127.998 127.998zM1001.526 662.496l-73.516 73.516-32.008-32.008c-16.378-16.38-39.010-26.51-64-26.51-49.988 0-90.514 40.522-90.514 90.51 0 25.002 10.14 47.638 26.534 64.018l31.988 31.986-73.518 73.516c-29.968 29.968-79.008 29.968-108.976 0l-595.040-595.038c-29.966-29.968-29.966-79.010 0-108.976l73.52-73.518 31.962 31.964c16.382 16.406 39.030 26.552 64.044 26.552 49.988 0 90.51-40.524 90.51-90.51 0-25.006-10.14-47.64-26.534-64.022l-31.984-31.986 73.516-73.518c29.966-29.966 79.008-29.966 108.976 0l595.040 595.040c29.964 29.976 29.964 79.016 0 108.984zM448.002 128.004l-256 256 384 384 256-256-384-384z" />
<glyph unicode="&#xe970;" d="M480 832c-50.666 0-99.582-7.95-145.386-23.628-42.924-14.694-81.114-35.436-113.502-61.646-60.044-48.59-93.112-110.802-93.112-175.174 0-35.99 10.066-70.948 29.92-103.898 20.686-34.34 51.898-65.794 90.26-90.958 30.44-19.968 50.936-51.952 56.362-87.95 0.902-5.99 1.63-12.006 2.18-18.032 2.722 2.52 5.424 5.114 8.114 7.794 24.138 24.040 56.688 37.312 90.322 37.312 5.348 0 10.718-0.336 16.094-1.018 19.36-2.452 39.124-3.696 58.748-3.696 50.666 0 99.58 7.948 145.384 23.628 42.926 14.692 81.116 35.434 113.504 61.644 60.046 48.59 93.112 110.802 93.112 175.174s-33.066 126.582-93.112 175.174c-32.388 26.212-70.578 46.952-113.504 61.646-45.804 15.678-94.718 23.628-145.384 23.628zM480 960v0c265.096 0 480-173.914 480-388.448s-214.904-388.448-480-388.448c-25.458 0-50.446 1.62-74.834 4.71-103.106-102.694-222.172-121.108-341.166-123.814v25.134c64.252 31.354 116 88.466 116 153.734 0 9.106-0.712 18.048-2.030 26.794-108.558 71.214-177.97 179.988-177.97 301.89 0 214.534 214.904 388.448 480 388.448zM996 89.314c0-55.942 36.314-104.898 92-131.772v-21.542c-103.126 2.318-197.786 18.102-287.142 106.126-21.14-2.65-42.794-4.040-64.858-4.040-95.47 0-183.408 25.758-253.614 69.040 144.674 0.506 281.26 46.854 384.834 130.672 52.208 42.252 93.394 91.826 122.414 147.348 30.766 58.866 46.366 121.582 46.366 186.406 0 10.448-0.45 20.836-1.258 31.168 72.57-59.934 117.258-141.622 117.258-231.676 0-104.488-60.158-197.722-154.24-258.764-1.142-7.496-1.76-15.16-1.76-22.966z" horiz-adv-x="1152" />
<glyph unicode="&#xe971;" d="M576 253.388v52.78c70.498 39.728 128 138.772 128 237.832 0 159.058 0 288-192 288s-192-128.942-192-288c0-99.060 57.502-198.104 128-237.832v-52.78c-217.102-17.748-384-124.42-384-253.388h896c0 128.968-166.898 235.64-384 253.388z" />
<glyph unicode="&#xe991;" d="M1002.934 142.124l-460.552 394.76c21.448 40.298 33.618 86.282 33.618 135.116 0 159.058-128.942 288-288 288-29.094 0-57.172-4.332-83.646-12.354l166.39-166.39c24.89-24.89 24.89-65.62 0-90.51l-101.49-101.49c-24.89-24.89-65.62-24.89-90.51 0l-166.39 166.39c-8.022-26.474-12.354-54.552-12.354-83.646 0-159.058 128.942-288 288-288 48.834 0 94.818 12.17 135.116 33.62l394.76-460.552c22.908-26.724 62.016-28.226 86.904-3.338l101.492 101.492c24.888 24.888 23.386 63.994-3.338 86.902z" />
<glyph unicode="&#xe999;" d="M1024 384v64h-193.29c-5.862 72.686-31.786 139.026-71.67 192.25h161.944l70.060 280.24-62.090 15.522-57.94-231.76h-174.68c-0.892 0.694-1.796 1.374-2.698 2.056 6.71 19.502 10.362 40.422 10.362 62.194 0.002 105.76-85.958 191.498-191.998 191.498s-192-85.738-192-191.5c0-21.772 3.65-42.692 10.362-62.194-0.9-0.684-1.804-1.362-2.698-2.056h-174.68l-57.94 231.76-62.090-15.522 70.060-280.24h161.944c-39.884-53.222-65.806-119.562-71.668-192.248h-193.29v-64h193.37c3.802-45.664 15.508-88.812 33.638-127.75h-123.992l-70.060-280.238 62.090-15.524 57.94 231.762h112.354c58.692-78.032 147.396-127.75 246.66-127.75s187.966 49.718 246.662 127.75h112.354l57.94-231.762 62.090 15.524-70.060 280.238h-123.992c18.13 38.938 29.836 82.086 33.636 127.75h193.37z" />
<glyph unicode="&#xe9a5;" d="M1017.703 953.736c-4.186 3.964-9.198 5.957-15.054 5.957-109.108 0-199.196-14.836-270.264-44.522-71.059-29.69-145.891-83.62-224.485-161.788-33.44-33.863-70.233-74.626-110.362-122.282l-237.657-12.537c-6.69-0.85-12.124-4.186-16.304-10.037l-140.463-240.808c-5.019-8.359-3.969-16.514 3.134-24.459l40.13-40.13c3.765-3.765 8.568-5.642 14.423-5.642 2.51 0 4.386 0.211 5.64 0.63l173.077 53.312 176.209-176.218-53.303-173.062c-2.084-7.533-0.413-14.215 5.019-20.070l40.132-40.136c4.599-3.749 9.411-5.636 14.423-5.636 3.769 0 7.112 0.843 10.035 2.513l240.806 140.463c5.855 4.177 9.194 9.605 10.033 16.295l12.537 237.665c47.661 40.136 88.43 76.921 122.284 110.369 74.434 74.839 127.408 150.182 158.961 226.055 31.568 75.877 47.345 165.867 47.345 269.954-0.007 5.434-2.095 10.134-6.297 14.114zM865.972 716.38c-11.696-11.698-25.917-17.558-42.64-17.558s-30.929 5.853-42.64 17.558c-11.696 11.707-17.558 25.921-17.558 42.647 0 16.716 5.855 30.933 17.558 42.64 11.702 11.7 25.917 17.555 42.64 17.555s30.938-5.849 42.64-17.555 17.558-25.924 17.558-42.64c0-16.727-5.84-30.931-17.558-42.647z" />
</font>
</defs>
</svg>
